<svg width="22" height="22" viewBox="0 0 22 22" fill="none" xmlns="http://www.w3.org/2000/svg">
<path fill-rule="evenodd" clip-rule="evenodd" d="M17.4643 8.5499L19.2748 11.2167C19.3594 11.3439 19.38 11.5027 19.3307 11.6471C19.281 11.7915 19.1672 11.9049 19.0223 11.9527L13.1128 13.9117C12.905 13.9816 12.6736 13.9037 12.5503 13.7189L10.9989 11.3917L9.44738 13.7189C9.32426 13.9035 9.09291 13.9816 8.88493 13.9117L2.97545 11.9527C2.83055 11.9049 2.71671 11.7916 2.66698 11.6471C2.61772 11.5027 2.63828 11.3439 2.72294 11.2167L4.53343 8.54994L2.72291 5.88316C2.63825 5.75593 2.61768 5.59715 2.66695 5.45271C2.71667 5.30831 2.83052 5.19495 2.97542 5.14712L8.8849 3.18818C9.09343 3.11641 9.32397 3.19631 9.44735 3.3809L10.9988 5.7081L12.5503 3.3809C12.6727 3.19725 12.9014 3.1169 13.1128 3.18818L19.0222 5.14712C19.1671 5.19492 19.281 5.30828 19.3307 5.45271C19.38 5.59715 19.3594 5.75593 19.2748 5.88313L17.4643 8.5499ZM6.67015 8.54994L10.9989 9.99283L15.3276 8.54994L10.9989 7.10704L6.67015 8.54994ZM11.7351 14.2622C12.1091 14.8234 12.806 15.0477 13.4224 14.8409L17.3652 13.5267V16.3857C17.3652 16.5966 17.2303 16.7836 17.0304 16.8501L11.156 18.8086C11.1402 18.8138 11.1244 18.8181 11.1081 18.8219C11.0718 18.8301 11.0355 18.8344 10.9986 18.8344C10.9642 18.8344 10.9293 18.8306 10.8948 18.8234H10.8944C10.8944 18.8229 10.8939 18.8229 10.8939 18.8229C10.8762 18.8191 10.8585 18.8143 10.8408 18.8081L4.96681 16.8501C4.7669 16.7836 4.63203 16.5966 4.63203 16.3857V13.5266L8.57238 14.8399C9.19275 15.0487 9.88886 14.8224 10.2621 14.2622L10.9986 13.1575L11.7351 14.2622Z" fill="#2D2643"/>
</svg>
