<svg width="20" height="20" viewBox="0 0 20 20" fill="none" xmlns="http://www.w3.org/2000/svg">
<path fill-rule="evenodd" clip-rule="evenodd" d="M6.08745 9.4252C7.28746 11.7502 9.04994 13.5127 11.375 14.7127L13.1375 12.9502C13.3875 12.7002 13.6624 12.6377 13.9625 12.7627C14.8625 13.0627 15.8124 13.2127 16.8125 13.2127C17.0375 13.2127 17.225 13.2877 17.375 13.4377C17.525 13.5877 17.6 13.7752 17.6 14.0002V16.8127C17.6 17.0377 17.525 17.2252 17.375 17.3752C17.225 17.5252 17.0375 17.6002 16.8125 17.6002C13.0624 17.6002 9.85621 16.269 7.1937 13.6064C4.53119 10.9439 3.19995 7.73771 3.19995 3.9877C3.19995 3.76269 3.27495 3.5752 3.42495 3.4252C3.57495 3.27519 3.76245 3.2002 3.98745 3.2002H6.79995C7.02495 3.2002 7.21245 3.27519 7.36245 3.4252C7.51245 3.5752 7.58745 3.76269 7.58745 3.9877C7.58745 4.9877 7.73745 5.93769 8.03745 6.8377C8.13745 7.1627 8.07495 7.43769 7.84995 7.6627L6.08745 9.4252Z" fill="#8D8D8D"/>
</svg>
