<svg width="40" height="40" viewBox="0 0 40 40" fill="none" xmlns="http://www.w3.org/2000/svg">
<path fill-rule="evenodd" clip-rule="evenodd" d="M31.7521 15.5454L35.044 20.394C35.1979 20.6254 35.2353 20.9141 35.1457 21.1767C35.0553 21.4392 34.8483 21.6453 34.5849 21.7323L23.8403 25.294C23.4626 25.4211 23.0418 25.2796 22.8177 24.9436L19.9968 20.7123L17.176 24.9436C16.9521 25.2792 16.5315 25.4212 16.1533 25.294L5.40882 21.7323C5.14538 21.6454 4.93838 21.4393 4.84797 21.1767C4.7584 20.9141 4.79579 20.6253 4.94972 20.394L8.24152 15.5454L4.94966 10.6967C4.79573 10.4654 4.75834 10.1767 4.84791 9.91412C4.93832 9.65156 5.14532 9.44545 5.40876 9.35849L16.1533 5.79677C16.5324 5.66629 16.9516 5.81155 17.1759 6.14718L19.9968 10.3784L22.8177 6.14718C23.0403 5.81327 23.4559 5.66718 23.8403 5.79677L34.5848 9.35849C34.8482 9.44539 35.0552 9.6515 35.1457 9.91412C35.2352 10.1767 35.1978 10.4654 35.044 10.6967L31.7521 15.5454ZM12.1265 15.5454L19.9968 18.1689L27.8672 15.5454L19.9968 12.922L12.1265 15.5454ZM21.3358 25.9312C22.0157 26.9517 23.2828 27.3594 24.4036 26.9834L31.5723 24.5939V29.7921C31.5723 30.1755 31.327 30.5156 30.9636 30.6365L20.2828 34.1973C20.2541 34.2069 20.2254 34.2147 20.1958 34.2217C20.1298 34.2364 20.0637 34.2443 19.9967 34.2443C19.9341 34.2443 19.8706 34.2373 19.808 34.2243H19.8071C19.8071 34.2234 19.8062 34.2234 19.8062 34.2234C19.7741 34.2164 19.7419 34.2077 19.7097 34.1964L9.02979 30.6364C8.66632 30.5156 8.42109 30.1755 8.42109 29.7921V24.5937L15.5854 26.9816C16.7133 27.3612 17.979 26.9497 18.6575 25.9312L19.9967 23.9227L21.3358 25.9312Z" fill="#212121"/>
</svg>
