<svg width="20" height="20" viewBox="0 0 20 20" fill="none" xmlns="http://www.w3.org/2000/svg">
<path fill-rule="evenodd" clip-rule="evenodd" d="M16.1014 7.21871V5.60936L10 9.61403L3.89861 5.60936V7.21871L10 11.186L16.1014 7.21871ZM16.1014 4C16.5058 4 16.8567 4.16218 17.154 4.48655C17.4514 4.81092 17.6 5.18518 17.6 5.60936V15.1906C17.6 15.6148 17.4514 15.9891 17.154 16.3134C16.8567 16.6378 16.5058 16.8 16.1014 16.8H3.89862C3.49423 16.8 3.14337 16.6378 2.84603 16.3134C2.54869 15.9891 2.40002 15.6148 2.40002 15.1906V5.60936C2.40002 5.18518 2.54869 4.81092 2.84603 4.48655C3.14337 4.16218 3.49423 4 3.89862 4H16.1014Z" fill="#8D8D8D"/>
</svg>
