<svg width="52" height="52" viewBox="0 0 52 52" fill="none" xmlns="http://www.w3.org/2000/svg">
<circle cx="26" cy="26" r="26" fill="white" fill-opacity="0.2"/>
<circle cx="26" cy="26" r="25.5" stroke="white" stroke-opacity="0.5"/>
<circle cx="26" cy="26" r="18" fill="white" fill-opacity="0.2"/>
<circle cx="26" cy="26" r="17.5" stroke="white" stroke-opacity="0.5"/>
<g filter="url(#filter0_b_159_83)">
<circle cx="26" cy="26" r="13" fill="#212121" fill-opacity="0.2"/>
</g>
<path fill-rule="evenodd" clip-rule="evenodd" d="M29.4357 26.6744V25.3257H26.674V22.564H25.3252V25.3257H22.5636V26.6744H25.3252V29.4361H26.674V26.6744H29.4357ZM21.1507 21.1831C22.4994 19.8344 24.1157 19.16 25.9997 19.16C27.8836 19.16 29.4946 19.829 30.8326 21.1671C32.1707 22.5051 32.8397 24.1161 32.8397 26C32.8397 27.884 32.1707 29.495 30.8326 30.833C29.4946 32.171 27.8836 32.84 25.9997 32.84C24.1157 32.84 22.5047 32.171 21.1667 30.833C19.8287 29.495 19.1597 27.884 19.1597 26C19.1597 24.1161 19.8233 22.5105 21.1507 21.1831Z" fill="white"/>
<defs>
<filter id="filter0_b_159_83" x="-19" y="-19" width="90" height="90" filterUnits="userSpaceOnUse" color-interpolation-filters="sRGB">
<feFlood flood-opacity="0" result="BackgroundImageFix"/>
<feGaussianBlur in="BackgroundImage" stdDeviation="16"/>
<feComposite in2="SourceAlpha" operator="in" result="effect1_backgroundBlur_159_83"/>
<feBlend mode="normal" in="SourceGraphic" in2="effect1_backgroundBlur_159_83" result="shape"/>
</filter>
</defs>
</svg>
