<svg width="20" height="20" viewBox="0 0 20 20" fill="none" xmlns="http://www.w3.org/2000/svg">
<path fill-rule="evenodd" clip-rule="evenodd" d="M8.92791 13.922C9.2377 14.2472 9.59515 14.4099 10.0003 14.4099C10.4054 14.4099 10.7628 14.2472 11.0726 13.922C11.3824 13.5967 11.5373 13.2214 11.5373 12.7961C11.5373 12.3707 11.3824 11.9954 11.0726 11.6701C10.7628 11.3449 10.4054 11.1822 10.0003 11.1822C9.59515 11.1822 9.2377 11.3449 8.92791 11.6701C8.61812 11.9954 8.46323 12.3707 8.46323 12.7961C8.46323 13.2214 8.61812 13.5967 8.92791 13.922ZM7.71235 7.9921H12.2877L10 4.4642L7.71235 7.9921ZM13.9678 7.9921H17.6137C17.8282 7.9921 18.0129 8.06716 18.1678 8.21728C18.3227 8.36741 18.4001 8.55506 18.4001 8.78024C18.1618 9.78107 17.8044 11.1885 17.3278 13.0025C16.8512 14.8165 16.5533 15.9611 16.4341 16.4365C16.2197 17.2122 15.7312 17.6 14.9686 17.6H5.03159C4.26903 17.6 3.78052 17.2122 3.56605 16.4365L1.63584 9.00543C1.61201 8.95539 1.6001 8.88033 1.6001 8.78024C1.6001 8.55506 1.67754 8.36741 1.83244 8.21728C1.98733 8.06716 2.17201 7.9921 2.38648 7.9921H6.03244L9.35669 2.73778C9.49967 2.51259 9.71414 2.4 10.0001 2.4C10.2861 2.4 10.5005 2.51259 10.6435 2.73778L13.9678 7.9921Z" fill="white"/>
</svg>
