<svg width="20" height="20" viewBox="0 0 20 20" fill="none" xmlns="http://www.w3.org/2000/svg">
<path fill-rule="evenodd" clip-rule="evenodd" d="M8.46611 13.8178L15.3168 6.96713L14.2464 5.86103L8.46611 11.6413L5.75437 8.92957L4.68395 9.99999L8.46611 13.8178ZM4.6126 4.64788C6.1112 3.14928 7.90711 2.39999 10.0004 2.39999C12.0937 2.39999 13.8836 3.14334 15.3703 4.63004C16.857 6.11675 17.6004 7.90671 17.6004 9.99999C17.6004 12.0933 16.857 13.8832 15.3703 15.3699C13.8836 16.8567 12.0937 17.6 10.0004 17.6C7.90711 17.6 6.11714 16.8567 4.63044 15.3699C3.14373 13.8832 2.40039 12.0933 2.40039 9.99999C2.40039 7.90671 3.13779 6.12269 4.6126 4.64788Z" fill="#2CBD62"/>
</svg>
