<svg width="16" height="16" viewBox="0 0 16 16" fill="none" xmlns="http://www.w3.org/2000/svg">
<path fill-rule="evenodd" clip-rule="evenodd" d="M4.49938 10.86C5.37938 11.72 6.43937 12.15 7.67938 12.15C8.91938 12.15 9.97437 11.715 10.8444 10.845C11.7144 9.97496 12.1494 8.91997 12.1494 7.67996C12.1494 6.43995 11.7144 5.38497 10.8444 4.51496C9.97437 3.64496 8.91938 3.20996 7.67938 3.20996C6.43937 3.20996 5.38438 3.64496 4.51438 4.51496C3.64437 5.38497 3.20938 6.43995 3.20938 7.67996C3.20938 8.91997 3.63937 9.97996 4.49938 10.86ZM13.4089 7.05H14.7289V8.31H13.4089C13.2689 9.65001 12.7189 10.8 11.7589 11.76C10.7989 12.72 9.64891 13.27 8.30891 13.41V14.73H7.04891V13.41C5.7089 13.27 4.55891 12.72 3.59891 11.76C2.6389 10.8 2.08891 9.65001 1.94891 8.31H0.628906V7.05H1.94891C2.08891 5.71 2.6389 4.56001 3.59891 3.6C4.55891 2.64 5.7089 2.09001 7.04891 1.95V0.630005H8.30891V1.95C9.64891 2.09001 10.7989 2.64 11.7589 3.6C12.7189 4.56001 13.2689 5.71 13.4089 7.05ZM5.87969 5.87998C6.37969 5.37998 6.97968 5.12998 7.67969 5.12998C8.37969 5.12998 8.97968 5.37998 9.47969 5.87998C9.97969 6.37998 10.2297 6.97998 10.2297 7.67998C10.2297 8.37998 9.97969 8.97998 9.47969 9.47998C8.97968 9.97998 8.37969 10.23 7.67969 10.23C6.97968 10.23 6.37969 9.97998 5.87969 9.47998C5.37969 8.97998 5.12969 8.37998 5.12969 7.67998C5.12969 6.97998 5.37969 6.37998 5.87969 5.87998Z" fill="#B3B1BB"/>
</svg>
