<svg width="22" height="22" viewBox="0 0 22 22" fill="none" xmlns="http://www.w3.org/2000/svg">
<path d="M9.81011 16.0312C9.82177 15.783 9.63907 15.6003 9.39082 15.6119L7.11162 15.7292L15.7335 7.10732L15.6157 9.39708C15.6098 9.51681 15.6468 9.62298 15.7279 9.70409C15.809 9.7852 15.9175 9.82445 16.0375 9.81891L16.3782 9.80163C16.4981 9.796 16.6126 9.74308 16.7019 9.65378C16.7911 9.56458 16.8432 9.44909 16.8488 9.32928L17.0328 5.40435C17.0386 5.28159 16.9946 5.16897 16.9128 5.09018C16.8307 5.00481 16.7179 4.96073 16.5953 4.96667L12.6721 5.15088C12.4322 5.16205 12.2117 5.38255 12.2006 5.62235L12.1845 5.96416C12.173 6.2124 12.3734 6.41278 12.6214 6.40086L14.8536 6.30429L6.29927 14.8586L6.39669 12.6159C6.40818 12.3675 6.21174 12.171 5.96349 12.1827L5.61984 12.197C5.37977 12.208 5.1584 12.4276 5.14732 12.6674L4.96234 16.5916C4.95685 16.7143 5.0003 16.8268 5.08245 16.9053C5.16436 16.9908 5.277 17.0346 5.39965 17.0289L9.32277 16.8446C9.56275 16.8335 9.78316 16.6131 9.79424 16.3731L9.81011 16.0312Z" fill="#8D8D8D"/>
</svg>
