<svg width="24" height="24" viewBox="0 0 24 24" fill="none" xmlns="http://www.w3.org/2000/svg">
<path fill-rule="evenodd" clip-rule="evenodd" d="M10.3999 10.3257C10.8621 9.84196 11.3954 9.6001 11.9999 9.6001C12.6043 9.6001 13.1377 9.84196 13.5999 10.3257C14.0621 10.8094 14.2932 11.3675 14.2932 12.0001C14.2932 12.6327 14.0621 13.1908 13.5999 13.6745C13.1377 14.1582 12.6043 14.4001 11.9999 14.4001C11.3954 14.4001 10.8621 14.1582 10.3999 13.6745C9.93766 13.1908 9.70655 12.6327 9.70655 12.0001C9.70655 11.3675 9.93766 10.8094 10.3999 10.3257ZM17.2266 10.3257C17.6888 9.84196 18.2221 9.6001 18.8266 9.6001C19.431 9.6001 19.9643 9.84196 20.4266 10.3257C20.8888 10.8094 21.1199 11.3675 21.1199 12.0001C21.1199 12.6327 20.8888 13.1908 20.4266 13.6745C19.9643 14.1582 19.431 14.4001 18.8266 14.4001C18.2221 14.4001 17.6888 14.1582 17.2266 13.6745C16.7643 13.1908 16.5332 12.6327 16.5332 12.0001C16.5332 11.3675 16.7643 10.8094 17.2266 10.3257ZM3.57322 10.3257C4.03544 9.84196 4.56877 9.6001 5.17322 9.6001C5.77766 9.6001 6.31099 9.84196 6.77322 10.3257C7.23544 10.8094 7.46655 11.3675 7.46655 12.0001C7.46655 12.6327 7.23544 13.1908 6.77322 13.6745C6.31099 14.1582 5.77766 14.4001 5.17322 14.4001C4.56877 14.4001 4.03544 14.1582 3.57322 13.6745C3.11099 13.1908 2.87988 12.6327 2.87988 12.0001C2.87988 11.3675 3.11099 10.8094 3.57322 10.3257Z" fill="#B3B1BB"/>
</svg>
