<svg width="48" height="48" viewBox="0 0 48 48" fill="none" xmlns="http://www.w3.org/2000/svg">
<path d="M15.6112 28.9937L11.4346 26.9989L7.90836 35.7067C7.89737 35.7341 7.88675 35.762 7.8776 35.7898C7.42972 37.1334 7.52933 38.3544 8.15848 39.2267C8.70377 39.9836 9.58048 40.4008 10.6271 40.4008H10.6275C11.123 40.4008 11.6554 40.307 12.2099 40.1221C12.2381 40.1129 12.2659 40.1027 12.293 40.0917L21.0008 36.5654L19.0064 32.3884C18.4728 31.2719 16.7278 29.5269 15.6112 28.9937Z" fill="#212121"/>
<path d="M47.8799 2.10828L20.4609 29.5272C20.9161 30.0879 21.2952 30.6555 21.5442 31.1763L28.504 45.75C29.439 47.7078 30.6716 48 31.3228 48H31.3231C31.905 48 33.3424 47.7469 34.1243 45.4017L47.7213 4.6106C48.026 3.6958 48.0765 2.83813 47.8799 2.10828Z" fill="#212121"/>
<path d="M18.4724 27.5387L45.8928 0.118286C45.6053 0.0402832 45.2969 0 44.9721 0C44.4759 0 43.9434 0.09375 43.389 0.278686L2.59821 13.8754C0.440129 14.595 0.0468184 15.8511 0.00433797 16.5355C-0.0381425 17.2203 0.197331 18.5153 2.24994 19.4952L16.8237 26.4554C17.3441 26.7045 17.9117 27.0835 18.4724 27.5387Z" fill="#212121"/>
</svg>
