<svg width="20" height="20" viewBox="0 0 20 20" fill="none" xmlns="http://www.w3.org/2000/svg">
<path fill-rule="evenodd" clip-rule="evenodd" d="M8.46979 8.97475C8.89932 9.36911 9.40938 9.5663 9.99999 9.5663C10.5906 9.5663 11.0939 9.36254 11.5101 8.95503C11.9262 8.54751 12.1342 8.05456 12.1342 7.47615C12.1342 6.89775 11.9262 6.4048 11.5101 5.99728C11.0939 5.58977 10.5906 5.38601 9.99999 5.38601C9.40938 5.38601 8.90603 5.58977 8.48992 5.99728C8.07381 6.4048 7.86576 6.89775 7.86576 7.47615C7.86576 8.05456 8.0671 8.55409 8.46979 8.97475ZM5.73154 3.33531C6.91276 2.1785 8.33556 1.6001 10 1.6001C11.6644 1.6001 13.0805 2.17192 14.2483 3.31559C15.4161 4.45926 16 5.8461 16 7.47615C16 8.29118 15.7919 9.22451 15.3758 10.2762C14.9597 11.3278 14.4564 12.3137 13.8658 13.2339C13.2752 14.1541 12.6913 15.0151 12.1141 15.817C11.5369 16.6189 11.047 17.2564 10.6443 17.7297L10 18.4001C9.83893 18.2161 9.62416 17.9729 9.3557 17.6705C9.08725 17.3682 8.60403 16.7635 7.90604 15.8564C7.20805 14.9494 6.59732 14.0686 6.07383 13.2142C5.55033 12.3597 5.07383 11.3935 4.6443 10.3156C4.21476 9.23765 4 8.29118 4 7.47615C4 5.8461 4.57718 4.46583 5.73154 3.33531Z" fill="#8D8D8D"/>
</svg>
