<svg width="20" height="20" viewBox="0 0 20 20" fill="none" xmlns="http://www.w3.org/2000/svg">
<path fill-rule="evenodd" clip-rule="evenodd" d="M8.46979 8.97462C8.89932 9.36899 9.40938 9.56617 9.99999 9.56617C10.5906 9.56617 11.0939 9.36242 11.5101 8.95491C11.9262 8.54739 12.1342 8.05444 12.1342 7.47603C12.1342 6.89763 11.9262 6.40467 11.5101 5.99716C11.0939 5.58965 10.5906 5.38589 9.99999 5.38589C9.40938 5.38589 8.90603 5.58965 8.48992 5.99716C8.07381 6.40467 7.86576 6.89763 7.86576 7.47603C7.86576 8.05444 8.0671 8.55396 8.46979 8.97462ZM5.73154 3.33519C6.91276 2.17837 8.33556 1.59998 10 1.59998C11.6644 1.59998 13.0805 2.1718 14.2483 3.31547C15.4161 4.45914 16 5.84598 16 7.47603C16 8.29106 15.7919 9.22438 15.3758 10.276C14.9597 11.3277 14.4564 12.3136 13.8658 13.2338C13.2752 14.154 12.6913 15.015 12.1141 15.8169C11.5369 16.6188 11.047 17.2563 10.6443 17.7296L10 18.4C9.83893 18.2159 9.62416 17.9727 9.3557 17.6704C9.08725 17.368 8.60403 16.7634 7.90604 15.8563C7.20805 14.9493 6.59732 14.0685 6.07383 13.2141C5.55033 12.3596 5.07383 11.3934 4.6443 10.3155C4.21476 9.23753 4 8.29106 4 7.47603C4 5.84598 4.57718 4.46571 5.73154 3.33519Z" fill="#212121"/>
</svg>
