<svg width="20" height="20" viewBox="0 0 20 20" fill="none" xmlns="http://www.w3.org/2000/svg">
<path fill-rule="evenodd" clip-rule="evenodd" d="M10 4.30579L10.5637 3.74276C12.3564 1.95233 15.2629 1.95233 17.0555 3.74276C18.8482 5.53319 18.8482 8.43605 17.0651 10.2168L15.9549 11.364L9.99798 17.1999L9.43776 16.6472L4.07391 11.3545L2.9445 10.2265C1.15184 8.43605 1.15184 5.53319 2.9445 3.74276C4.73715 1.95233 7.64362 1.95233 9.43627 3.74276L10 4.30579ZM15.9241 9.09657C17.092 7.9302 17.092 6.03915 15.9241 4.87278C14.7563 3.70641 12.8629 3.70641 11.6951 4.87278L10 6.56578L8.30489 4.87278C7.13708 3.70641 5.24367 3.70641 4.07586 4.87278C2.90804 6.03915 2.90804 7.9302 4.07586 9.09657L5.20184 10.2212L10.002 14.9576L14.8119 10.2458L15.9241 9.09657Z" fill="white"/>
</svg>
