<svg width="20" height="20" viewBox="0 0 20 20" fill="none" xmlns="http://www.w3.org/2000/svg">
<path fill-rule="evenodd" clip-rule="evenodd" d="M10.0001 4.30588L10.5638 3.74285C12.3565 1.95242 15.263 1.95242 17.0556 3.74285C18.8483 5.53328 18.8483 8.43614 17.0652 10.2169L15.955 11.3641L9.99807 17.2L9.43785 16.6472L4.07401 11.3546L2.94459 10.2266C1.15193 8.43614 1.15193 5.53328 2.94459 3.74285C4.73724 1.95242 7.64371 1.95242 9.43637 3.74285L10.0001 4.30588ZM15.9242 9.09661C17.0921 7.93024 17.0921 6.03919 15.9242 4.87282C14.7564 3.70645 12.863 3.70645 11.6952 4.87282L10.0001 6.56582L8.305 4.87282C7.13718 3.70645 5.24378 3.70645 4.07596 4.87282C2.90814 6.03919 2.90814 7.93024 4.07596 9.09661L5.20194 10.2212L10.0021 14.9577L14.812 10.2459L15.9242 9.09661Z" fill="#212121"/>
</svg>
