<svg width="22" height="22" viewBox="0 0 22 22" fill="none" xmlns="http://www.w3.org/2000/svg">
<path d="M13.7162 15.3989C13.5489 15.2151 13.2906 15.2151 13.1233 15.3989L11.5946 17.0935V4.90026L13.1303 6.60271C13.2109 6.69147 13.3121 6.74041 13.4268 6.74041C13.5415 6.74041 13.646 6.69147 13.7269 6.60271L13.9556 6.3496C14.0364 6.26083 14.0799 6.14243 14.0799 6.01615C14.0799 5.89 14.0351 5.77147 13.9543 5.68284L11.3091 2.77737C11.2264 2.68643 11.1157 2.6379 11.0021 2.64008C10.8837 2.63777 10.7728 2.6863 10.6903 2.77724L8.04639 5.68162C7.88466 5.85915 7.88466 6.17098 8.04639 6.34838L8.27667 6.60149C8.44409 6.78513 8.72746 6.78513 8.89439 6.60135L10.4045 4.95464V17.0523L8.88759 15.3975C8.72004 15.2138 8.44224 15.2138 8.27494 15.3975L8.04206 15.6507C7.88008 15.8282 7.87884 16.14 8.04057 16.3174L10.6846 19.223C10.7675 19.3137 10.8777 19.3625 10.9913 19.3599C11.1097 19.3625 11.2204 19.3138 11.303 19.223L13.9468 16.3186C14.1086 16.1411 14.1086 15.8294 13.9468 15.6519L13.7162 15.3989Z" fill="#8D8D8D"/>
</svg>
