<svg width="40" height="40" viewBox="0 0 40 40" fill="none" xmlns="http://www.w3.org/2000/svg">
<path fill-rule="evenodd" clip-rule="evenodd" d="M10.7376 24.5125V5.69061C10.7376 5.19875 10.3388 4.79999 9.84697 4.79999H7.47197C5.99633 4.79999 4.8001 5.99622 4.8001 7.47186V24.9918C5.32456 24.6876 5.93268 24.5125 6.58135 24.5125H10.7376ZM33.4188 35.2H28.9657C28.4738 35.2 28.075 34.8012 28.075 34.3094V31.6375H33.4188C34.4026 31.6375 35.2 32.435 35.2 33.4187C35.2 34.4025 34.4026 35.2 33.4188 35.2ZM27.2424 16.1552C27.5964 16.569 27.8691 17.0421 28.053 17.5615C28.179 17.9171 28.5153 18.1548 28.8926 18.1548H30.0938V19.9361H28.8926C28.5153 19.9361 28.179 20.1738 28.053 20.5294C27.8691 21.0488 27.5964 21.5219 27.2424 21.9357C26.9969 22.2226 26.9591 22.633 27.1478 22.96L27.7479 23.9993L26.2053 24.89L25.6054 23.851C25.4444 23.5721 25.1483 23.4056 24.8344 23.4056C24.7807 23.4056 24.7265 23.4104 24.6724 23.4204C24.103 23.5256 23.6158 23.5256 23.0464 23.4204C22.6757 23.3523 22.3019 23.5244 22.1134 23.851L21.5135 24.89L19.9709 23.9993L20.5709 22.96C20.7597 22.6331 20.7218 22.2226 20.4764 21.9358C20.1224 21.5218 19.8497 21.0487 19.6658 20.5295C19.54 20.1738 19.2035 19.9361 18.8263 19.9361H17.625V18.1548H18.8263C19.2035 18.1548 19.5399 17.9171 19.6658 17.5614C19.8496 17.0422 20.1224 16.5691 20.4764 16.1551C20.7219 15.8683 20.7597 15.4578 20.5709 15.1309L19.9709 14.0916L21.5135 13.201L22.1134 14.24C22.3018 14.5665 22.6755 14.7389 23.0464 14.6705C23.6162 14.5652 24.1026 14.5652 24.6724 14.6705C25.0432 14.7386 25.4169 14.5664 25.6054 14.24L26.2053 13.201L27.7479 14.0916L27.1478 15.1309C26.9591 15.4579 26.997 15.8683 27.2424 16.1552ZM21.1875 19.0454C21.1875 20.5187 22.3862 21.7173 23.8594 21.7173C25.3327 21.7173 26.5313 20.5187 26.5313 19.0454C26.5313 17.5722 25.3327 16.3736 23.8594 16.3736C22.3862 16.3736 21.1875 17.5722 21.1875 19.0454ZM32.5282 8.3625H12.5188V24.5125C12.5188 25.4963 11.7213 26.2937 10.7375 26.2937H6.5813C5.59751 26.2937 4.80005 27.0912 4.80005 28.075C4.80005 29.0588 5.59751 29.8562 6.5813 29.8562H33.4188C34.0675 29.8562 34.6756 30.0313 35.2 30.3355V11.0344C35.2 9.55873 34.0038 8.3625 32.5282 8.3625ZM31.875 20.8267C31.875 21.3185 31.4763 21.7173 30.9844 21.7173H29.4876C29.3442 22.0202 29.1774 22.3097 28.9878 22.5844L29.7358 23.88C29.8539 24.0845 29.8859 24.3276 29.8248 24.5558C29.7637 24.784 29.6145 24.9785 29.4099 25.0966L26.3246 26.8778C26.1881 26.9567 26.0343 26.9972 25.8793 26.9972C25.8021 26.9972 25.7247 26.9871 25.6488 26.9668C25.4206 26.9057 25.2261 26.7564 25.108 26.5519L24.361 25.2581C24.0217 25.2869 23.6971 25.2869 23.3578 25.2581L22.6108 26.5519C22.4927 26.7564 22.2982 26.9057 22.07 26.9668C21.8419 27.028 21.5988 26.9959 21.3942 26.8778L18.309 25.0966C18.1044 24.9785 17.9552 24.7839 17.894 24.5558C17.8329 24.3276 17.8649 24.0845 17.983 23.88L18.731 22.5844C18.5414 22.3097 18.3746 22.0202 18.2313 21.7173H16.7344C16.2426 21.7173 15.8438 21.3185 15.8438 20.8267V17.2642C15.8438 16.7723 16.2426 16.3736 16.7344 16.3736H18.2313C18.3746 16.0707 18.5414 15.7812 18.731 15.5065L17.983 14.2109C17.8649 14.0064 17.8329 13.7632 17.894 13.5351C17.9551 13.307 18.1044 13.1124 18.309 12.9943L21.3942 11.2131C21.5988 11.0949 21.8418 11.0631 22.07 11.1241C22.2982 11.1852 22.4927 11.3345 22.6108 11.5391L23.3576 12.8325C23.6947 12.8037 24.0242 12.8037 24.3613 12.8325L25.108 11.5391C25.2261 11.3345 25.4206 11.1852 25.6488 11.1241C25.877 11.0631 26.1201 11.095 26.3246 11.2131L29.4099 12.9943C29.6144 13.1124 29.7637 13.307 29.8248 13.5351C29.886 13.7632 29.854 14.0064 29.7358 14.2109L28.9878 15.5065C29.1773 15.7812 29.3442 16.0707 29.4875 16.3736H30.9844C31.4763 16.3736 31.875 16.7723 31.875 17.2642V20.8267ZM24.75 19.0454C24.75 19.5373 24.3513 19.936 23.8594 19.936C23.3675 19.936 22.9688 19.5373 22.9688 19.0454C22.9688 18.5535 23.3675 18.1548 23.8594 18.1548C24.3513 18.1548 24.75 18.5535 24.75 19.0454Z" fill="#212121"/>
</svg>
