<svg width="40" height="40" viewBox="0 0 40 40" fill="none" xmlns="http://www.w3.org/2000/svg">
<path d="M29.0829 23.0274C28.4774 23.0274 28.0233 23.1788 27.5692 23.1788L23.1795 18.7891L26.8124 15.1562L31.5048 13.4912L34.9863 7.89053C35.1376 7.58779 35.1376 7.13369 34.9863 6.98232L33.1699 5.1659C32.8671 4.86316 32.413 4.86316 32.1103 5.01453L26.3583 8.34464L24.5418 13.1884L20.909 16.8213L16.822 12.4316C16.822 11.9775 16.9734 11.5234 16.9734 10.9179C16.9734 6.98232 13.1892 4.10632 9.40496 5.01453L11.6755 7.28506C12.8864 8.49601 12.8864 10.3124 11.6755 11.5234C10.4645 12.7343 8.64811 12.7343 7.43716 11.5234L5.01526 9.40422C3.80431 13.7939 7.89127 18.0322 12.4323 16.6699L16.822 21.0596L15.0056 22.876C13.946 22.5733 12.8864 22.876 12.1296 23.6329L5.92347 29.839C4.71252 31.0499 4.56115 32.8663 5.62074 34.0773C6.83169 35.4396 8.79948 35.4396 10.0104 34.2287L16.3679 27.8712C17.1248 27.1143 17.4275 25.9034 17.1248 24.9952L18.9412 23.1788L23.3309 27.5684C23.1795 28.0226 23.1795 28.628 23.1795 29.0821C23.1795 33.0177 26.9637 35.8937 30.748 34.9855L28.4774 32.715C27.2665 31.504 27.2665 29.6876 28.4774 28.4767C29.6884 27.2657 31.5048 27.2657 32.7157 28.4767L34.9863 30.7472C36.0459 26.8116 33.0185 23.0274 29.0829 23.0274Z" fill="#212121"/>
</svg>
