<svg width="40" height="40" viewBox="0 0 40 40" fill="none" xmlns="http://www.w3.org/2000/svg">
<path fill-rule="evenodd" clip-rule="evenodd" d="M24.5501 17.3175C27.6533 15.6965 29.2372 9.39829 25.5346 5.12612C25.3106 4.8677 24.9647 4.7503 24.6297 4.81957C23.9158 4.96679 23.2325 5.20448 22.5914 5.51912C25.8067 8.46223 27.4218 13.844 24.5501 17.3175ZM5.85147 20.4974H11.7553C12.2771 20.4974 12.7002 20.9205 12.7002 21.4423V34.2551C12.7002 34.777 12.2772 35.2 11.7553 35.2H5.85147C5.32962 35.2 4.90662 34.777 4.90662 34.2551V21.4423C4.90662 20.9205 5.32962 20.4974 5.85147 20.4974ZM30.3746 25.2163C31.8707 24.5642 33.6716 25.0517 34.5638 26.3503C35.6242 27.8935 35.0276 29.9197 33.3528 30.7675L27.4717 33.7436C26.2513 34.3611 24.8702 34.6875 23.4776 34.6875C20.9459 34.6875 20.936 34.6842 17.6269 33.5672C17.1554 33.408 16.6169 33.2263 15.9945 33.0187H14.5898V21.6547H15.6566C18.0568 21.6547 19.443 22.6025 20.9294 23.6189L20.9296 23.619C21.1102 23.7425 21.2924 23.8671 21.478 23.991H22.6919C23.8183 23.991 24.8219 24.4904 25.465 25.2642C24.601 25.4133 23.8866 25.5401 23.2888 25.6462C20.3639 26.1655 20.2283 26.1895 19.0107 25.9008C18.5031 25.7803 17.9937 26.0943 17.8733 26.602C17.7529 27.1097 18.0668 27.6189 18.5746 27.7394C20.1896 28.1228 20.6418 28.042 23.7723 27.4824L23.7727 27.4823C24.4009 27.37 25.1369 27.2385 26.0118 27.0875C26.0272 27.0848 26.0382 27.0836 26.0491 27.082C26.128 27.0701 26.2036 27.0371 27.893 26.2992L27.8934 26.299L27.8994 26.2964C28.4984 26.0348 29.2996 25.6848 30.3746 25.2163ZM17.8437 17.5506C16.897 17.2042 16.1002 16.548 15.5312 15.6431C13.4375 12.3135 13.8251 8.01903 16.3323 5.12611C16.5562 4.86763 16.9022 4.75059 17.2372 4.81956C21.0091 5.59753 23.8371 8.82505 24.145 12.7191C24.2999 14.6762 23.303 16.4308 21.6148 17.2908C21.408 15.2689 20.8826 13.2179 20.0416 11.1607C19.8441 10.6777 19.2925 10.4464 18.8094 10.6436C18.3264 10.8411 18.0949 11.3927 18.2924 11.8758C19.4558 14.7214 20.0073 17.6028 19.7729 20.6924C19.1807 20.4081 18.5595 20.1879 17.9183 20.0333C17.9536 19.2139 17.9292 18.3857 17.8437 17.5506Z" fill="#212121"/>
</svg>
