<svg width="40" height="40" viewBox="0 0 40 40" fill="none" xmlns="http://www.w3.org/2000/svg">
<path fill-rule="evenodd" clip-rule="evenodd" d="M35.2 30.3988V11.6224C35.1887 9.10151 33.0579 7.28056 30.5769 7.47426V26.9817H31.5371C33.4848 26.9751 35.081 28.5237 35.2 30.3988ZM28.7922 28.7997H31.5371C34.0178 28.8969 34.068 32.4554 31.5288 32.5399H4.79999V11.0922L28.7752 11.0875C28.7947 14.902 28.7937 24.8562 28.7922 28.7997ZM17.8285 17.1551H24.1345V15.3703H8.84536V28.8152H24.1345V20.1296H22.3498V27.0305H15.8653V24.6509H14.0805V27.0305H10.6301V17.1551H16.0437V20.903H12.8907V22.6877H20.2676V20.903H17.8285V17.1551Z" fill="#212121"/>
</svg>
