<svg width="127" height="30" viewBox="0 0 127 30" fill="none" xmlns="http://www.w3.org/2000/svg">
<path d="M23.98 21C23.848 21 23.746 20.964 23.674 20.892C23.602 20.808 23.566 20.706 23.566 20.586V8.832C23.566 8.7 23.602 8.598 23.674 8.526C23.746 8.442 23.848 8.4 23.98 8.4H31.324C31.456 8.4 31.558 8.442 31.63 8.526C31.714 8.598 31.756 8.7 31.756 8.832V9.552C31.756 9.684 31.714 9.786 31.63 9.858C31.558 9.93 31.456 9.966 31.324 9.966H25.312V14.16H30.964C31.096 14.16 31.198 14.202 31.27 14.286C31.354 14.358 31.396 14.46 31.396 14.592V15.312C31.396 15.432 31.354 15.534 31.27 15.618C31.198 15.69 31.096 15.726 30.964 15.726H25.312V20.586C25.312 20.706 25.27 20.808 25.186 20.892C25.114 20.964 25.012 21 24.88 21H23.98ZM37.4917 21C37.3597 21 37.2577 20.964 37.1857 20.892C37.1137 20.808 37.0777 20.706 37.0777 20.586V8.814C37.0777 8.694 37.1137 8.598 37.1857 8.526C37.2577 8.442 37.3597 8.4 37.4917 8.4H38.4457C38.5657 8.4 38.6617 8.442 38.7337 8.526C38.8177 8.598 38.8597 8.694 38.8597 8.814V19.434H44.8357C44.9677 19.434 45.0697 19.476 45.1417 19.56C45.2257 19.632 45.2677 19.734 45.2677 19.866V20.586C45.2677 20.706 45.2257 20.808 45.1417 20.892C45.0697 20.964 44.9677 21 44.8357 21H37.4917ZM49.3743 21C49.2783 21 49.1943 20.964 49.1223 20.892C49.0503 20.82 49.0143 20.736 49.0143 20.64C49.0143 20.58 49.0203 20.514 49.0323 20.442L53.4963 8.796C53.5443 8.676 53.6103 8.58 53.6943 8.508C53.7783 8.436 53.9043 8.4 54.0723 8.4H55.2963C55.4643 8.4 55.5903 8.436 55.6743 8.508C55.7583 8.58 55.8243 8.676 55.8723 8.796L60.3183 20.442C60.3423 20.514 60.3543 20.58 60.3543 20.64C60.3543 20.736 60.3183 20.82 60.2463 20.892C60.1743 20.964 60.0903 21 59.9943 21H59.0763C58.9323 21 58.8243 20.964 58.7523 20.892C58.6923 20.82 58.6503 20.754 58.6263 20.694L57.6363 18.138H51.7323L50.7423 20.694C50.7303 20.754 50.6883 20.82 50.6163 20.892C50.5443 20.964 50.4363 21 50.2923 21H49.3743ZM52.2543 16.59H57.1143L54.6843 10.2L52.2543 16.59ZM67.111 21C66.991 21 66.889 20.964 66.805 20.892C66.733 20.808 66.697 20.706 66.697 20.586V10.002H63.241C63.121 10.002 63.019 9.966 62.935 9.894C62.863 9.81 62.827 9.708 62.827 9.588V8.832C62.827 8.7 62.863 8.598 62.935 8.526C63.019 8.442 63.121 8.4 63.241 8.4H71.917C72.049 8.4 72.151 8.442 72.223 8.526C72.307 8.598 72.349 8.7 72.349 8.832V9.588C72.349 9.708 72.307 9.81 72.223 9.894C72.151 9.966 72.049 10.002 71.917 10.002H68.479V20.586C68.479 20.706 68.437 20.808 68.353 20.892C68.281 20.964 68.179 21 68.047 21H67.111ZM77.7808 21C77.6488 21 77.5468 20.964 77.4748 20.892C77.4028 20.808 77.3668 20.706 77.3668 20.586V8.814C77.3668 8.694 77.4028 8.598 77.4748 8.526C77.5468 8.442 77.6488 8.4 77.7808 8.4H78.7348C78.8668 8.4 78.9688 8.442 79.0408 8.526C79.1128 8.598 79.1488 8.694 79.1488 8.814V20.586C79.1488 20.706 79.1128 20.808 79.0408 20.892C78.9688 20.964 78.8668 21 78.7348 21H77.7808ZM85.7027 21C85.5707 21 85.4687 20.964 85.3967 20.892C85.3247 20.808 85.2887 20.706 85.2887 20.586V8.832C85.2887 8.7 85.3247 8.598 85.3967 8.526C85.4687 8.442 85.5707 8.4 85.7027 8.4H90.0947C91.4507 8.4 92.5247 8.718 93.3167 9.354C94.1087 9.99 94.5047 10.932 94.5047 12.18C94.5047 13.104 94.2707 13.86 93.8027 14.448C93.3467 15.024 92.7227 15.426 91.9307 15.654L94.7027 20.442C94.7387 20.514 94.7567 20.58 94.7567 20.64C94.7567 20.736 94.7147 20.82 94.6307 20.892C94.5587 20.964 94.4747 21 94.3787 21H93.5147C93.3107 21 93.1607 20.946 93.0647 20.838C92.9687 20.73 92.8847 20.622 92.8127 20.514L90.2027 15.942H87.0527V20.586C87.0527 20.706 87.0107 20.808 86.9267 20.892C86.8547 20.964 86.7527 21 86.6207 21H85.7027ZM87.0527 14.412H90.0227C90.9227 14.412 91.5947 14.226 92.0387 13.854C92.4827 13.47 92.7047 12.906 92.7047 12.162C92.7047 11.43 92.4827 10.872 92.0387 10.488C91.6067 10.104 90.9347 9.912 90.0227 9.912H87.0527V14.412ZM104.602 21.18C103.57 21.18 102.688 21.006 101.956 20.658C101.224 20.298 100.66 19.752 100.264 19.02C99.868 18.276 99.646 17.346 99.598 16.23C99.586 15.702 99.58 15.198 99.58 14.718C99.58 14.226 99.586 13.716 99.598 13.188C99.646 12.084 99.874 11.166 100.282 10.434C100.702 9.69 101.278 9.138 102.01 8.778C102.754 8.406 103.618 8.22 104.602 8.22C105.574 8.22 106.426 8.406 107.158 8.778C107.902 9.138 108.484 9.69 108.904 10.434C109.324 11.166 109.552 12.084 109.588 13.188C109.612 13.716 109.624 14.226 109.624 14.718C109.624 15.198 109.612 15.702 109.588 16.23C109.552 17.346 109.33 18.276 108.922 19.02C108.526 19.752 107.962 20.298 107.23 20.658C106.498 21.006 105.622 21.18 104.602 21.18ZM104.602 19.65C105.514 19.65 106.258 19.374 106.834 18.822C107.422 18.27 107.74 17.376 107.788 16.14C107.812 15.6 107.824 15.12 107.824 14.7C107.824 14.268 107.812 13.788 107.788 13.26C107.764 12.432 107.608 11.76 107.32 11.244C107.044 10.728 106.672 10.35 106.204 10.11C105.736 9.87 105.202 9.75 104.602 9.75C104.002 9.75 103.468 9.87 103 10.11C102.532 10.35 102.154 10.728 101.866 11.244C101.59 11.76 101.434 12.432 101.398 13.26C101.386 13.788 101.38 14.268 101.38 14.7C101.38 15.12 101.386 15.6 101.398 16.14C101.446 17.376 101.764 18.27 102.352 18.822C102.94 19.374 103.69 19.65 104.602 19.65ZM115.662 21C115.53 21 115.428 20.964 115.356 20.892C115.284 20.808 115.248 20.706 115.248 20.586V8.832C115.248 8.7 115.284 8.598 115.356 8.526C115.428 8.442 115.53 8.4 115.662 8.4H116.49C116.634 8.4 116.742 8.436 116.814 8.508C116.886 8.568 116.928 8.616 116.94 8.652L122.916 17.832V8.832C122.916 8.7 122.952 8.598 123.024 8.526C123.096 8.442 123.198 8.4 123.33 8.4H124.194C124.326 8.4 124.428 8.442 124.5 8.526C124.584 8.598 124.626 8.7 124.626 8.832V20.568C124.626 20.688 124.584 20.79 124.5 20.874C124.428 20.958 124.332 21 124.212 21H123.348C123.216 21 123.114 20.964 123.042 20.892C122.982 20.82 122.94 20.772 122.916 20.748L116.958 11.658V20.586C116.958 20.706 116.916 20.808 116.832 20.892C116.76 20.964 116.658 21 116.526 21H115.662Z" fill="#212529"/>
<path d="M14 3H0L14 24V3Z" fill="#FC6A03"/>
<path d="M2 8H0L14 28V26L2 8Z" fill="#0A0A0D"/>
</svg>
