<svg width="40" height="40" viewBox="0 0 40 40" fill="none" xmlns="http://www.w3.org/2000/svg">
<path fill-rule="evenodd" clip-rule="evenodd" d="M27.1711 29.1507V7.77539H12.7538V29.1507H27.1711ZM18.2354 34.5839C18.736 35.0128 19.3117 35.2273 19.9625 35.2273C20.6132 35.2273 21.1764 35.0009 21.652 34.5481C22.1276 34.0954 22.3653 33.5592 22.3653 32.9396C22.3653 32.32 22.1276 31.7839 21.652 31.3311C21.1764 30.8783 20.6132 30.652 19.9625 30.652C19.3117 30.652 18.7485 30.8783 18.2729 31.3311C17.7974 31.7839 17.5596 32.32 17.5596 32.9396C17.5596 33.5592 17.7848 34.1073 18.2354 34.5839ZM26.4202 3.19995C27.5215 3.19995 28.4601 3.58122 29.2361 4.34378C30.012 5.10634 30.4 6.01186 30.4 7.06038V32.9395C30.4 33.988 30.012 34.8936 29.2361 35.6561C28.4601 36.4187 27.5215 36.7999 26.4202 36.7999H13.5798C12.4784 36.7999 11.5398 36.4187 10.7639 35.6561C9.98794 34.8936 9.59998 33.988 9.59998 32.9395V7.06038C9.59998 6.01186 9.98794 5.10634 10.7639 4.34378C11.5398 3.58122 12.4784 3.19995 13.5798 3.19995H26.4202Z" fill="#212121"/>
</svg>
