<svg width="24" height="24" viewBox="0 0 24 24" fill="none" xmlns="http://www.w3.org/2000/svg">
<path fill-rule="evenodd" clip-rule="evenodd" d="M7.30484 11.31C8.74485 14.1 10.8598 16.215 13.6498 17.655L15.7648 15.54C16.0648 15.24 16.3948 15.165 16.7548 15.315C17.8348 15.675 18.9748 15.855 20.1748 15.855C20.4448 15.855 20.6698 15.945 20.8498 16.125C21.0298 16.305 21.1198 16.53 21.1198 16.8V20.175C21.1198 20.445 21.0298 20.67 20.8498 20.85C20.6698 21.03 20.4448 21.12 20.1748 21.12C15.6748 21.12 11.8274 19.5225 8.63234 16.3275C5.43733 13.1325 3.83984 9.28505 3.83984 4.78503C3.83984 4.51503 3.92984 4.29003 4.10984 4.11003C4.28984 3.93003 4.51484 3.84003 4.78484 3.84003H8.15984C8.42984 3.84003 8.65484 3.93003 8.83484 4.11003C9.01484 4.29003 9.10484 4.51503 9.10484 4.78503C9.10484 5.98503 9.28484 7.12502 9.64484 8.20503C9.76484 8.59503 9.68984 8.92502 9.41984 9.19503L7.30484 11.31Z" fill="white"/>
</svg>
