<svg width="24" height="24" viewBox="0 0 24 24" fill="none" xmlns="http://www.w3.org/2000/svg">
<path fill-rule="evenodd" clip-rule="evenodd" d="M7.03783 13.1634C7.87858 14.0041 8.89948 14.4245 10.1006 14.4245C11.3016 14.4245 12.3225 14.0041 13.1633 13.1634C14.004 12.3226 14.4244 11.3017 14.4244 10.1006C14.4244 8.89954 14.004 7.87864 13.1633 7.03788C12.3225 6.19713 11.3016 5.77676 10.1006 5.77676C8.89948 5.77676 7.87858 6.19713 7.03783 7.03788C6.19707 7.87864 5.7767 8.89954 5.7767 10.1006C5.7767 11.3017 6.19707 12.3226 7.03783 13.1634ZM15.8657 14.4245L20.64 19.1987L19.1987 20.64L14.4244 15.8658V15.1001L14.1542 14.8298C13.0132 15.8207 11.662 16.3162 10.1006 16.3162C8.35899 16.3162 6.88019 15.7156 5.66409 14.5146C4.448 13.3135 3.83997 11.8422 3.83997 10.1006C3.83997 8.35905 4.448 6.88025 5.66409 5.66416C6.88019 4.44806 8.35899 3.84003 10.1006 3.84003C11.8421 3.84003 13.3134 4.44806 14.5145 5.66416C15.7156 6.88025 16.3161 8.35905 16.3161 10.1006C16.3161 11.662 15.8207 13.0132 14.8298 14.1542L15.1 14.4245H15.8657Z" fill="#212121"/>
</svg>
