<svg width="22" height="22" viewBox="0 0 22 22" fill="none" xmlns="http://www.w3.org/2000/svg">
<path d="M15.9963 12.665C15.6633 12.665 15.4136 12.7483 15.1638 12.7483L12.7495 10.334L14.7475 8.3359L17.3284 7.42012L19.2432 4.33977C19.3264 4.17327 19.3264 3.92351 19.2432 3.84026L18.2442 2.84122C18.0777 2.67472 17.8279 2.67472 17.6614 2.75797L14.4978 4.58953L13.4987 7.25362L11.5007 9.25168L9.25285 6.83735C9.25285 6.58759 9.3361 6.33784 9.3361 6.00483C9.3361 3.84026 7.25478 2.25845 5.17346 2.75797L6.42225 4.00676C7.08827 4.67278 7.08827 5.67182 6.42225 6.33784C5.75623 7.00386 4.75719 7.00386 4.09117 6.33784L2.75913 5.1723C2.0931 7.58663 4.34093 9.9177 6.83852 9.16843L9.25285 11.5828L8.25381 12.5818C7.67104 12.4153 7.08827 12.5818 6.67201 12.9981L3.25864 16.4114C2.59262 17.0774 2.50937 18.0765 3.09214 18.7425C3.75816 19.4918 4.84045 19.4918 5.50647 18.8257L9.00309 15.3291C9.41935 14.9129 9.58586 14.2468 9.41935 13.7473L10.4184 12.7483L12.8327 15.1626C12.7495 15.4124 12.7495 15.7454 12.7495 15.9952C12.7495 18.1597 14.8308 19.7415 16.9121 19.242L15.6633 17.9932C14.9973 17.3272 14.9973 16.3282 15.6633 15.6621C16.3293 14.9961 17.3284 14.9961 17.9944 15.6621L19.2432 16.9109C19.826 14.7464 18.1609 12.665 15.9963 12.665Z" fill="#212121"/>
</svg>
