<svg width="20" height="20" viewBox="0 0 20 20" fill="none" xmlns="http://www.w3.org/2000/svg">
<path fill-rule="evenodd" clip-rule="evenodd" d="M8.06462 11.8911C8.60031 12.4144 9.24555 12.6761 10.0004 12.6761C10.7552 12.6761 11.4005 12.4144 11.9361 11.8911C12.4718 11.3678 12.7397 10.7374 12.7397 10C12.7397 9.26259 12.4718 8.63224 11.9361 8.10892C11.4005 7.5856 10.7552 7.32394 10.0004 7.32394C9.24555 7.32394 8.60031 7.5856 8.06462 8.10892C7.52894 8.63224 7.2611 9.26259 7.2611 10C7.2611 10.7374 7.52894 11.3678 8.06462 11.8911ZM15.8077 10.7493L17.4513 11.9981C17.6217 12.1171 17.646 12.2836 17.5243 12.4976L15.9538 15.138C15.8564 15.3045 15.6981 15.3521 15.479 15.2807L13.5432 14.5314C13.0319 14.8883 12.5936 15.138 12.2283 15.2807L11.9362 17.2789C11.8875 17.493 11.7657 17.6 11.5709 17.6H8.42987C8.23507 17.6 8.11333 17.493 8.06463 17.2789L7.77244 15.2807C7.3098 15.0904 6.87152 14.8407 6.45758 14.5314L4.52182 15.2807C4.30267 15.3521 4.1444 15.3045 4.04701 15.138L2.47648 12.4976C2.35474 12.2836 2.37908 12.1171 2.54953 11.9981L4.1931 10.7493C4.16875 10.5828 4.15658 10.333 4.15658 9.99999C4.15658 9.66697 4.16875 9.41721 4.1931 9.2507L2.54953 8.00187C2.37908 7.88294 2.35474 7.71643 2.47648 7.50234L4.04701 4.86197C4.1444 4.69545 4.30267 4.64788 4.52182 4.71924L6.45758 5.46854C6.96892 5.11173 7.4072 4.86197 7.77244 4.71924L8.06463 2.72112C8.11333 2.50704 8.23507 2.39999 8.42987 2.39999H11.5709C11.7657 2.39999 11.8875 2.50704 11.9362 2.72112L12.2283 4.71924C12.691 4.90954 13.1293 5.1593 13.5432 5.46854L15.479 4.71924C15.6981 4.64788 15.8564 4.69545 15.9538 4.86197L17.5243 7.50234C17.646 7.71643 17.6217 7.88294 17.4513 8.00187L15.8077 9.2507C15.832 9.41721 15.8442 9.66697 15.8442 9.99999C15.8442 10.333 15.832 10.5828 15.8077 10.7493Z" fill="white"/>
</svg>
