<svg width="20" height="20" viewBox="0 0 20 20" fill="none" xmlns="http://www.w3.org/2000/svg">
<path fill-rule="evenodd" clip-rule="evenodd" d="M8.92766 13.922C9.23745 14.2473 9.59489 14.4099 10 14.4099C10.4051 14.4099 10.7625 14.2473 11.0723 13.922C11.3821 13.5967 11.537 13.2214 11.537 12.7961C11.537 12.3707 11.3821 11.9954 11.0723 11.6701C10.7625 11.3449 10.4051 11.1822 10 11.1822C9.59489 11.1822 9.23745 11.3449 8.92766 11.6701C8.61787 11.9954 8.46298 12.3707 8.46298 12.7961C8.46298 13.2214 8.61787 13.5967 8.92766 13.922ZM7.71233 7.99212H12.2876L9.99999 4.46422L7.71233 7.99212ZM13.9676 7.99212H17.6136C17.8281 7.99212 18.0127 8.06718 18.1676 8.21731C18.3225 8.36743 18.4 8.55508 18.4 8.78027C18.1617 9.7811 17.8042 11.1885 17.3276 13.0025C16.851 14.8165 16.5532 15.9612 16.434 16.4366C16.2195 17.2122 15.731 17.6 14.9685 17.6H5.03146C4.26891 17.6 3.7804 17.2122 3.56593 16.4366L1.63572 9.00546C1.61189 8.95542 1.59998 8.88035 1.59998 8.78027C1.59998 8.55508 1.67742 8.36743 1.83232 8.21731C1.98721 8.06718 2.17189 7.99212 2.38636 7.99212H6.03232L9.35657 2.7378C9.49955 2.51262 9.71402 2.40002 9.99998 2.40002C10.2859 2.40002 10.5004 2.51262 10.6434 2.7378L13.9676 7.99212Z" fill="#212121"/>
</svg>
