<svg width="12" height="12" viewBox="0 0 12 12" fill="none" xmlns="http://www.w3.org/2000/svg">
<path d="M12 2H0V10.0001H12V2Z" fill="#F0F0F0"/>
<path d="M6.75 1.99994H5.25V5.24992H0V6.74992H5.25V9.99991H6.75V6.74992H12V5.24992H6.75V1.99994Z" fill="#D80027"/>
<path d="M9.22852 7.39124L11.9992 8.93052V7.39124H9.22852Z" fill="#0052B4"/>
<path d="M7.30273 7.39124L11.9984 9.99992V9.26225L8.63059 7.39124H7.30273Z" fill="#0052B4"/>
<path d="M10.7476 9.99991L7.30273 8.08591V9.99991H10.7476Z" fill="#0052B4"/>
<path d="M7.30469 7.3912L12.0003 9.99989V9.26222L8.63254 7.3912H7.30469Z" fill="#F0F0F0"/>
<path d="M7.30469 7.3912L12.0003 9.99989V9.26222L8.63254 7.3912H7.30469Z" fill="#D80027"/>
<path d="M2.11737 7.39114L0 8.56747V7.39114H2.11737Z" fill="#0052B4"/>
<path d="M4.69587 7.7229V9.99988H0.597656L4.69587 7.7229Z" fill="#0052B4"/>
<path d="M3.3678 7.3912L0 9.26222V9.99989L4.69566 7.3912H3.3678Z" fill="#D80027"/>
<path d="M2.77066 4.60862L0 3.06934V4.60862H2.77066Z" fill="#0052B4"/>
<path d="M4.69566 4.60863L0 1.99994V2.73761L3.3678 4.60863H4.69566Z" fill="#0052B4"/>
<path d="M1.25 1.99994L4.69489 3.91394V1.99994H1.25Z" fill="#0052B4"/>
<path d="M4.69566 4.60863L0 1.99994V2.73761L3.3678 4.60863H4.69566Z" fill="#F0F0F0"/>
<path d="M4.69566 4.60863L0 1.99994V2.73761L3.3678 4.60863H4.69566Z" fill="#D80027"/>
<path d="M9.88281 4.60867L12.0002 3.43234V4.60867H9.88281Z" fill="#0052B4"/>
<path d="M7.30469 4.27692V1.99994H11.4029L7.30469 4.27692Z" fill="#0052B4"/>
<path d="M8.63254 4.60863L12.0003 2.73761V1.99994L7.30469 4.60863H8.63254Z" fill="#D80027"/>
</svg>
