<svg width="22" height="22" viewBox="0 0 22 22" fill="none" xmlns="http://www.w3.org/2000/svg">
<path d="M6.60145 13.7163C6.78523 13.549 6.78523 13.2906 6.60145 13.1233L4.90689 11.5946L17.1001 11.5946L15.3976 13.1304C15.3089 13.211 15.2599 13.3122 15.2599 13.4269C15.2599 13.5416 15.3089 13.646 15.3976 13.727L15.6508 13.9556C15.7395 14.0364 15.8579 14.08 15.9842 14.08C16.1103 14.08 16.2289 14.0352 16.3175 13.9544L19.223 11.3092C19.3139 11.2265 19.3624 11.1158 19.3603 11.0022C19.3626 10.8837 19.3141 10.7729 19.2231 10.6903L16.3187 8.04646C16.1412 7.88473 15.8294 7.88473 15.652 8.04646L15.3989 8.27675C15.2152 8.44417 15.2152 8.72754 15.399 8.89447L17.0457 10.4046L4.94807 10.4046L6.60281 8.88766C6.78659 8.72012 6.78659 8.44231 6.60281 8.27502L6.3497 8.04213C6.17217 7.88015 5.86033 7.87892 5.68294 8.04065L2.77733 10.6846C2.68667 10.7675 2.63786 10.8778 2.64045 10.9914C2.63786 11.1098 2.68653 11.2204 2.77733 11.3031L5.68171 13.9469C5.85924 14.1087 6.17094 14.1087 6.34847 13.9469L6.60145 13.7163Z" fill="#8D8D8D"/>
</svg>
