<svg width="64" height="66" viewBox="0 0 64 66" fill="none" xmlns="http://www.w3.org/2000/svg">
<circle cx="32" cy="32" r="32" fill="#2CBD62" fill-opacity="0.2"/>
<path d="M33.4844 28.0371C32.3451 28.0371 31.4629 28.4668 30.8379 29.3262C30.2129 30.179 29.9004 31.3704 29.9004 32.9004C29.9004 36.084 31.0951 37.6758 33.4844 37.6758C34.487 37.6758 35.7012 37.4251 37.127 36.9238V39.4629C35.9551 39.9512 34.6465 40.1953 33.2012 40.1953C31.1243 40.1953 29.5358 39.5671 28.4355 38.3105C27.3353 37.0475 26.7852 35.2376 26.7852 32.8809C26.7852 31.3965 27.0553 30.0977 27.5957 28.9844C28.1361 27.8646 28.9108 27.0085 29.9199 26.416C30.9355 25.8171 32.1237 25.5176 33.4844 25.5176C34.8711 25.5176 36.2643 25.8529 37.6641 26.5234L36.6875 28.9844C36.1536 28.7305 35.6165 28.5091 35.0762 28.3203C34.5358 28.1315 34.0052 28.0371 33.4844 28.0371Z" fill="#2CBD62"/>
<path d="M54.6279 54.6274C48.6267 60.6286 40.4874 64 32.0005 64C23.5135 64 15.3742 60.6286 9.37305 54.6274" stroke="#2CBD62" stroke-width="3"/>
</svg>
