<svg width="64" height="66" viewBox="0 0 64 66" fill="none" xmlns="http://www.w3.org/2000/svg">
<circle cx="32" cy="32" r="32" fill="#7D9AFF" fill-opacity="0.2"/>
<path d="M27.0781 25.7227H31.5215C33.5462 25.7227 35.0143 26.0124 35.9258 26.5918C36.8438 27.1647 37.3027 28.0794 37.3027 29.3359C37.3027 30.1888 37.1009 30.8887 36.6973 31.4355C36.3001 31.9824 35.7695 32.3112 35.1055 32.4219V32.5195C36.0104 32.7214 36.6615 33.099 37.0586 33.6523C37.4622 34.2057 37.6641 34.9414 37.6641 35.8594C37.6641 37.1615 37.1921 38.1771 36.248 38.9062C35.3105 39.6354 34.0345 40 32.4199 40H27.0781V25.7227ZM30.1055 31.377H31.8633C32.6836 31.377 33.276 31.25 33.6406 30.9961C34.0117 30.7422 34.1973 30.3223 34.1973 29.7363C34.1973 29.1895 33.9954 28.7988 33.5918 28.5645C33.1947 28.3236 32.5632 28.2031 31.6973 28.2031H30.1055V31.377ZM30.1055 33.7793V37.5H32.0781C32.9115 37.5 33.5267 37.3405 33.9238 37.0215C34.321 36.7025 34.5195 36.2142 34.5195 35.5566C34.5195 34.3717 33.6732 33.7793 31.9805 33.7793H30.1055Z" fill="#7D9AFF"/>
<path d="M54.6279 54.6274C48.6267 60.6286 40.4874 64 32.0005 64C23.5135 64 15.3742 60.6286 9.37305 54.6274" stroke="#7D9AFF" stroke-width="3"/>
</svg>
