<svg width="24" height="24" viewBox="0 0 24 24" fill="none" xmlns="http://www.w3.org/2000/svg">
<path fill-rule="evenodd" clip-rule="evenodd" d="M7.0377 13.1634C7.87846 14.0042 8.89936 14.4245 10.1004 14.4245C11.3015 14.4245 12.3224 14.0042 13.1632 13.1634C14.0039 12.3227 14.4243 11.3018 14.4243 10.1007C14.4243 8.8996 14.0039 7.8787 13.1632 7.03794C12.3224 6.19719 11.3015 5.77682 10.1004 5.77682C8.89936 5.77682 7.87846 6.19719 7.0377 7.03794C6.19695 7.8787 5.77658 8.8996 5.77658 10.1007C5.77658 11.3018 6.19695 12.3227 7.0377 13.1634ZM15.8656 14.4245L20.6398 19.1988L19.1986 20.6401L14.4243 15.8658V15.1001L14.1541 14.8299C13.013 15.8208 11.6618 16.3162 10.1004 16.3162C8.35887 16.3162 6.88006 15.7157 5.66397 14.5146C4.44788 13.3135 3.83984 11.8422 3.83984 10.1007C3.83984 8.35911 4.44788 6.88031 5.66397 5.66422C6.88006 4.44812 8.35887 3.84009 10.1004 3.84009C11.842 3.84009 13.3133 4.44812 14.5144 5.66422C15.7155 6.88031 16.316 8.35911 16.316 10.1007C16.316 11.6621 15.8205 13.0133 14.8297 14.1543L15.0999 14.4245H15.8656Z" fill="white"/>
</svg>
